<svg width="124" height="133" viewBox="0 0 124 133" fill="none" xmlns="http://www.w3.org/2000/svg">
<g clip-path="url(#clip0_2553_1540)">
<path d="M62 133C96.2417 133 124 103.227 124 66.5C124 29.7731 96.2417 0 62 0C27.7583 0 0 29.7731 0 66.5C0 103.227 27.7583 133 62 133Z" fill="black"/>
<path d="M88.0678 60.2209L87.4522 62.6721C87.2983 63.2813 86.8221 63.761 86.2065 63.9145L83.7488 64.5285C83.4603 64.6005 83.4603 65.0082 83.7488 65.0802L86.2065 65.6942C86.8173 65.8477 87.2983 66.3226 87.4522 66.9366L88.0678 69.3878C88.1399 69.6756 88.5488 69.6756 88.6209 69.3878L89.2365 66.9366C89.3904 66.3274 89.8666 65.8477 90.4822 65.6942L92.9399 65.0802C93.2285 65.0082 93.2285 64.6005 92.9399 64.5285L90.4822 63.9145C89.8714 63.761 89.3904 63.2861 89.2365 62.6721L88.6209 60.2209C88.5488 59.9331 88.1399 59.9331 88.0678 60.2209Z" fill="white"/>
<path d="M36.1246 60.2209L35.509 62.6721C35.3551 63.2813 34.8789 63.761 34.2633 63.9145L31.8056 64.5285C31.517 64.6005 31.517 65.0082 31.8056 65.0802L34.2633 65.6942C34.8741 65.8477 35.3551 66.3226 35.509 66.9366L36.1246 69.3878C36.1967 69.6756 36.6055 69.6756 36.6777 69.3878L37.2933 66.9366C37.4472 66.3274 37.9234 65.8477 38.539 65.6942L40.9967 65.0802C41.2852 65.0082 41.2852 64.6005 40.9967 64.5285L38.539 63.9145C37.9282 63.761 37.4472 63.2861 37.2933 62.6721L36.6777 60.2209C36.6055 59.9331 36.1967 59.9331 36.1246 60.2209Z" fill="white"/>
<path d="M62.3752 109.653C41.0255 109.653 23.6582 90.1777 23.6582 66.2409C23.6582 42.3042 41.0255 22.8286 62.3752 22.8286C83.7248 22.8286 101.092 42.3042 101.092 66.2409C101.092 90.1777 83.7248 109.653 62.3752 109.653ZM62.3752 25.2271C42.353 25.2271 26.063 43.6282 26.063 66.2409C26.063 88.8537 42.353 107.255 62.3752 107.255C82.3973 107.255 98.6873 88.8537 98.6873 66.2409C98.6873 43.6282 82.3973 25.2271 62.3752 25.2271Z" fill="white"/>
<path d="M63.2457 37.939C65.3474 37.5889 66.9394 35.9963 66.9394 34.0871C66.9394 31.9237 64.8905 30.1632 62.3703 30.1632C59.8501 30.1632 57.8013 31.9237 57.8013 34.0871C57.8013 35.9963 59.3932 37.5841 61.495 37.939V50.8332C61.495 51.0731 61.6922 51.2697 61.9327 51.2697H62.808C63.0485 51.2697 63.2457 51.0731 63.2457 50.8332V49.9602H64.121V50.8332H65.6312C65.7659 50.8332 65.8717 50.7277 65.8717 50.5934V45.8396C65.8717 45.7053 65.7659 45.5998 65.6312 45.5998H64.121V46.4728H63.2457V37.939ZM59.6289 34.0871C59.6289 33.6842 59.7684 33.3052 60.0136 32.979C60.1964 32.7344 60.5812 32.7248 60.7591 32.9742C61.0525 33.3868 61.6441 33.6506 62.3751 33.6506C63.1062 33.6506 63.6978 33.3868 63.9912 32.9742C64.1691 32.7248 64.5539 32.7344 64.7366 32.979C64.9819 33.3052 65.1214 33.6842 65.1214 34.0871C65.1214 35.2911 63.8902 36.2697 62.38 36.2697C60.8697 36.2697 59.6385 35.2911 59.6385 34.0871H59.6289Z" fill="white"/>
<path d="M9.96541 51.6966C9.24878 51.6151 8.80149 51.639 8.42154 51.7398L9.42674 48.6458C10.3406 48.8232 13.6688 48.521 15.7417 47.8926C14.5104 46.5543 12.8079 44.837 11.0091 43.7865L12.0047 40.7356C12.2836 41.0858 12.7117 41.4024 13.2263 41.6902C15.4194 42.9134 19.7577 44.1846 21.6093 43.844L20.5176 47.1971C19.5268 46.1801 16.2419 45.5086 15.2944 45.2927L19.7384 49.5764C17.0306 50.1664 15.0876 50.6269 13.486 50.838C16.1024 51.9413 17.5741 52.1619 18.9641 51.946L18.0214 54.8482C16.7325 53.4907 12.5433 51.97 9.9606 51.6918L9.96541 51.6966Z" fill="white"/>
<path d="M19.926 36.1018C17.5068 34.3318 17.1124 31.2425 18.9641 28.7241C20.8061 26.2201 23.8891 25.6541 26.3083 27.4242C28.8093 29.2566 29.2517 32.3986 27.4097 34.9026C25.558 37.421 22.427 37.9295 19.926 36.1018ZM24.548 29.8466C22.7684 28.5467 20.9504 28.4603 20.1376 29.5636C19.32 30.6765 19.9404 32.3842 21.72 33.6842C23.5813 35.0465 25.457 35.1712 26.2794 34.0583C27.0922 32.955 26.4093 31.209 24.548 29.8466Z" fill="white"/>
<path d="M31.493 22.3922C29.8144 19.9122 30.4878 16.8709 33.0801 15.1248C35.6629 13.3835 38.7554 13.892 40.4339 16.372C42.1702 18.9336 41.5257 22.042 38.943 23.7833C36.3506 25.5294 33.2292 24.9586 31.493 22.397V22.3922ZM37.957 18.0558C36.721 16.2329 35.0376 15.5422 33.9026 16.3097C32.7531 17.082 32.7675 18.9 33.9988 20.7229C35.2925 22.632 37.0143 23.3804 38.1638 22.6033C39.2989 21.8405 39.246 19.9649 37.957 18.0558Z" fill="white"/>
<path d="M47.0038 9.84808C46.7345 9.24367 46.4892 8.88869 46.2102 8.62486L49.4182 7.90052C49.7982 8.99422 52.7416 11.6661 54.9684 12.9949C54.5644 10.6204 53.7276 8.11159 52.9773 7.09943L55.7524 6.47583C55.358 8.13077 56.2382 12.7262 57.3011 15.0528C57.5608 15.614 57.7724 15.9642 57.984 16.3L54.7616 17.0291C54.3576 15.8347 51.2699 13.4362 49.3605 11.93C49.6635 14.4436 50.4475 16.7173 51.342 17.8014L48.4419 18.4538C48.9613 16.6405 48.0475 12.2274 47.0086 9.84808H47.0038Z" fill="white"/>
<path d="M65.4004 6.19287L69.9694 6.84046C72.8552 7.2482 73.4227 8.78322 73.2736 9.82416C73.1245 10.8651 72.3646 11.8149 71.0323 12.237C72.6724 12.5872 73.4612 13.7001 73.3025 14.8274C73.1293 16.0218 72.0712 17.3122 69.0171 16.8805L63.9767 16.1657C65.2416 14.4436 66.1314 8.20279 65.4004 6.19287ZM67.8436 15.403C68.4304 15.4845 70.3302 15.6524 70.5273 14.2421C70.6476 13.4027 69.9069 12.7743 67.6705 13.0237L67.3434 15.331L67.8436 15.403ZM70.6332 9.84334C70.84 8.40426 69.2576 8.04929 68.7719 7.98213L68.4015 7.92936L67.8388 11.8868C69.4548 11.5798 70.46 11.0666 70.638 9.84334H70.6332Z" fill="white"/>
<path d="M81.7673 10.0209L85.36 11.6326C83.6334 13.0046 81.0988 18.6218 81.2142 20.8188L77.6214 19.207C79.3625 17.8399 81.8971 12.2227 81.7673 10.0209Z" fill="white"/>
<path d="M91.8529 23.8504C91.3672 23.577 90.9199 23.2796 90.5447 22.9678C89.7656 24.0999 89.2413 25.1072 89.0441 25.9323L86.0093 23.4091C88.0678 22.5169 91.9876 17.8303 92.4782 15.6716L97.1098 19.5236C98.8364 20.9627 98.8893 22.5409 97.8841 23.7449C96.8885 24.9393 95.2966 25.0401 93.7431 24.6323C93.5411 25.8172 93.1467 27.64 93.6806 29.789L90.487 27.1363C90.79 26.7718 91.5451 25.5773 91.8577 23.8552L91.8529 23.8504ZM91.4201 21.9172C92.8389 22.963 94.6617 23.318 95.5659 22.2386C96.523 21.0682 95.2966 19.9553 94.1663 19.0151C93.2573 19.7202 92.382 20.7708 91.4201 21.922V21.9172Z" fill="white"/>
<path d="M105.401 28.2013L108.326 32.8255C110.019 35.5022 109.441 37.6705 107.465 38.9129C105.012 40.4527 101.174 40.3999 99.0913 37.0996L96.8597 33.5691C98.9951 33.4156 104.353 30.0481 105.401 28.2013ZM99.9955 36.1882C101.179 38.0638 104.064 37.5265 105.906 36.3657C107.97 35.0705 107.402 33.7082 106.83 32.8064L106.238 31.871C104.262 32.5185 101.381 34.327 99.8175 35.9052L99.9955 36.1834V36.1882Z" fill="white"/>
<path d="M104.911 46.4201L107.657 46.3481C106.743 47.485 106.339 49.1639 106.705 50.4063C107.013 51.4569 107.643 51.903 108.364 51.6919C109.138 51.4664 109.239 50.6414 109.143 49.7539L108.951 48.2333C108.739 46.5544 109.331 45.288 110.88 44.8323C112.818 44.2614 114.516 45.6861 115.199 47.9455C115.66 49.4613 115.598 50.7853 115.54 51.7015L113.029 52.0037C113.746 51.1211 114.246 49.7108 113.852 48.3724C113.515 47.2259 112.75 46.8806 112.25 47.0293C111.63 47.2116 111.5 47.7008 111.577 48.5739L111.779 50.1185C111.986 52.1428 111.288 53.5483 109.639 54.0328C107.773 54.5797 106.036 53.5003 105.257 50.862C104.694 48.9576 104.8 47.0676 104.911 46.4201Z" fill="white"/>
<path d="M13.3898 95.2529C13.8179 95.2385 14.294 95.109 14.7798 94.7492L15.1309 94.4854L13.6351 91.3674L13.2936 91.4489C12.6828 91.5785 12.25 91.9478 11.9854 92.3268L10.5378 89.2999C11.4949 89.5302 12.4279 89.4678 13.688 89.3623C17.627 88.9353 20.0943 88.446 21.0178 87.7985L22.8839 91.6936C21.5084 92.2212 19.5845 94.0153 17.1172 96.4857C15.7657 97.8001 15.3136 98.4956 15.1453 98.9082L13.3898 95.2481V95.2529ZM19.9693 90.2977C18.4687 90.408 16.9104 90.6239 15.0443 91.0364L16.2852 93.6219C17.7377 92.5139 18.8727 91.5113 19.9741 90.3025L19.9693 90.2977Z" fill="white"/>
<path d="M26.7844 98.1886L30.8533 102.765C32.2577 104.348 32.1038 105.926 30.8822 107.005C28.8718 108.78 25.4474 106.986 23.7833 105.111C22.8454 106.113 22.1769 107.034 21.8498 107.816L19.2286 104.866C21.3977 104.295 25.9764 100.247 26.7844 98.1838V98.1886ZM28.867 105.135C29.978 104.132 28.9151 102.822 27.958 101.748C26.9528 102.309 25.9283 103.216 24.8029 104.209C26.0438 105.456 27.7944 106.08 28.867 105.135Z" fill="white"/>
<path d="M36.923 108.363L42.1943 111.486C44.0171 112.565 44.3489 114.119 43.5169 115.515C42.1462 117.818 38.3322 117.146 36.1775 115.87C35.5907 117.113 35.2348 118.187 35.1627 119.036L31.7623 117.021C33.6525 115.817 36.7787 110.57 36.9182 108.363H36.923ZM41.0303 114.345C41.7854 113.05 40.3714 112.129 39.1306 111.395C38.3466 112.234 37.6444 113.409 36.8797 114.695C38.4428 115.506 40.3041 115.568 41.0303 114.345Z" fill="white"/>
<path d="M53.92 122.543C53.3621 122.543 52.8282 122.509 52.3424 122.423C52.227 123.79 52.2703 124.927 52.506 125.742L48.615 125.042C49.9617 123.253 51.0487 117.247 50.4042 115.127L56.3392 116.192C58.5564 116.59 59.3836 117.938 59.1047 119.482C58.8305 121.012 57.4983 121.885 55.9448 122.293C56.3584 123.421 56.9163 125.2 58.4458 126.807L54.3576 126.073C54.4442 125.608 54.5067 124.198 53.9248 122.543H53.92ZM52.5877 121.075C54.3384 121.286 56.0987 120.696 56.3536 119.31C56.6085 117.818 54.9877 117.458 53.54 117.194C53.0975 118.254 52.857 119.602 52.5925 121.075H52.5877Z" fill="white"/>
<path d="M67.0837 121.631C66.444 118.705 68.1947 116.129 71.2536 115.462C74.298 114.8 76.9866 116.407 77.6263 119.334C78.29 122.356 76.5345 125.008 73.49 125.67C70.4312 126.337 67.7426 124.653 67.0789 121.631H67.0837ZM74.6972 119.986C74.2259 117.832 72.9129 116.575 71.5758 116.863C70.2244 117.161 69.5606 118.849 70.032 121.003C70.5274 123.253 71.85 124.586 73.2063 124.289C74.5481 123.996 75.1926 122.236 74.7021 119.986H74.6972Z" fill="white"/>
<path d="M80.6803 112.723L83.9556 110.67C84.4703 111.706 86.4614 113.568 89.1211 115.731C88.3083 112.416 87.2598 110.099 86.5865 109.025L89.2029 107.384C88.9816 109.85 90.7083 116.076 91.7664 117.679L89.1163 119.338C87.9331 117.463 82.5464 113.155 80.6899 112.723H80.6803Z" fill="white"/>
<path d="M101.881 106.593C102.963 105.36 103.521 104.199 103.588 103.033L105.233 105.159L100.217 110.876C99.4376 108.857 94.705 104.727 92.6177 104.242L97.6148 98.5483L100.005 99.9107C98.8027 100.103 97.7831 100.76 96.6865 102.007L96.0805 102.698C96.5855 103.345 97.2541 104.046 97.9851 104.722C98.543 104.194 99.5338 103.091 99.7839 101.911L101.616 103.513C100.476 103.916 99.4761 105.01 99.048 105.653C99.8176 106.286 100.592 106.847 101.304 107.255L101.886 106.593H101.881Z" fill="white"/>
<path d="M100.659 94.2119L103.026 89.2807C104.396 86.4265 106.541 85.7597 108.648 86.7671C111.264 88.0143 113.26 91.2858 111.572 94.802L109.764 98.5676C108.494 96.8454 102.785 94.116 100.654 94.2167L100.659 94.2119ZM110.317 94.5189C111.279 92.5186 109.283 90.3744 107.32 89.4342C105.122 88.3836 104.271 89.5877 103.809 90.5471L103.329 91.5448C104.93 92.8688 108.003 94.3366 110.173 94.8115L110.317 94.5141V94.5189Z" fill="white"/>
<path d="M73.9181 84.4694C74.715 84.4694 75.361 83.8251 75.361 83.0303C75.361 82.2355 74.715 81.5912 73.9181 81.5912C73.1212 81.5912 72.4752 82.2355 72.4752 83.0303C72.4752 83.8251 73.1212 84.4694 73.9181 84.4694Z" fill="white"/>
<path d="M50.8322 84.4694C51.6291 84.4694 52.2751 83.8251 52.2751 83.0303C52.2751 82.2355 51.6291 81.5912 50.8322 81.5912C50.0353 81.5912 49.3893 82.2355 49.3893 83.0303C49.3893 83.8251 50.0353 84.4694 50.8322 84.4694Z" fill="white"/>
<path d="M38.4813 79.0825C37.428 82.8145 38.5197 86.8583 41.0736 89.9859C45.8976 96.8168 53.6362 101.259 62.3703 101.259C71.1045 101.259 78.8431 96.8168 83.6671 89.9859C86.2209 86.8583 87.3127 82.8145 86.2594 79.0825C84.9608 74.487 80.8775 71.5177 75.8467 71.5177C74.1008 71.5177 72.3502 71.8775 70.6428 72.5826C68.8296 73.3357 67.2328 74.4199 65.9246 75.7198C63.9238 77.7058 60.8217 77.7058 58.8209 75.7198C57.5079 74.4199 55.9159 73.3357 54.1027 72.5826C52.3953 71.8775 50.6446 71.5177 48.8988 71.5177C43.868 71.5177 39.7798 74.487 38.4861 79.0825H38.4813ZM43.3052 80.8957C44.1373 78.0655 47.7493 76.9382 51.3709 78.3821C52.1067 78.6747 52.7849 79.0537 53.3957 79.495C53.4053 79.4998 53.4101 79.4998 53.4197 79.5046C53.463 79.5382 53.5063 79.5766 53.5544 79.6101C53.6987 79.7205 53.8382 79.8308 53.9777 79.9459C56.6758 82.1189 59.0277 84.8196 60.6966 87.8753C61.4277 89.2136 63.3419 89.1704 64.0777 87.8321C65.0493 86.0668 66.242 84.4167 67.5935 82.9344C68.5939 81.8359 69.6712 80.8142 70.8303 79.898C70.941 79.8068 71.0564 79.7157 71.1718 79.6293C71.2247 79.5862 71.2776 79.543 71.3305 79.5046C71.3402 79.4998 71.345 79.4998 71.3546 79.495C71.9654 79.0585 72.6387 78.6747 73.3794 78.3821C77.001 76.9382 80.613 78.0607 81.445 80.8957C82.2771 83.7259 80.0118 87.1941 76.3902 88.638C72.7686 90.0819 69.1566 88.9594 68.3246 86.1244C68.1322 85.4624 68.1129 84.7669 68.2332 84.0665C65.5927 87.4052 63.6641 91.4394 63.4044 95.7183L63.3419 96.9127C63.3948 97.4404 63.0052 97.9153 62.4713 97.9632C61.8749 98.0256 61.3555 97.5075 61.418 96.9127C61.394 96.5002 61.3459 95.5168 61.3267 95.1235C61.2689 94.7397 61.1198 93.7467 61.0573 93.3486C60.3215 89.9476 58.6958 86.796 56.5315 84.0713C56.6518 84.7716 56.6373 85.4672 56.4401 86.1292C55.6081 88.9594 51.9961 90.0867 48.3745 88.6428C44.7529 87.1989 42.4876 83.7307 43.3197 80.9005L43.3052 80.8957Z" fill="white"/>
<path d="M61.3748 69.5653C70.436 70.1266 77.9581 62.9647 77.9581 54.052C77.9581 49.8643 76.2988 46.0699 73.6006 43.2733C72.8648 42.5106 71.5951 43.326 71.9943 44.3046C72.6676 45.9452 72.9273 47.792 72.6532 49.7252C72.0039 54.3398 68.1995 57.9999 63.5583 58.518C57.2866 59.2135 51.9769 54.335 51.9769 48.2189C51.9769 46.847 52.2462 45.5374 52.732 44.3382C53.1408 43.3308 51.8807 42.501 51.1304 43.2829C48.2254 46.2953 46.5325 50.4735 46.8162 55.045C47.2972 62.7824 53.6169 69.0808 61.3748 69.5653ZM62.3703 61.1755C63.9863 61.1755 65.2945 62.4802 65.2945 64.092C65.2945 65.7038 63.9863 67.0085 62.3703 67.0085C60.7543 67.0085 59.4461 65.7038 59.4461 64.092C59.4461 62.4802 60.7543 61.1755 62.3703 61.1755Z" fill="white"/>
</g>
<defs>
<clipPath id="clip0_2553_1540">
<rect width="124" height="133" fill="white"/>
</clipPath>
</defs>
</svg>
