<svg width="1289" height="359" viewBox="0 0 1289 359" fill="none" xmlns="http://www.w3.org/2000/svg">
<path d="M150.6 9.9334C139.267 28.3334 119 62.0667 119 62.6001C119 62.8667 120.333 62.7334 121.933 62.2001C123.533 61.8001 129.133 60.6001 134.2 59.8001L143.667 58.2001L144.333 44.8667L145 31.6667H157.667C169.8 31.6667 170.333 31.8001 170.733 34.6001C171.133 37.5334 170.867 37.6667 159.8 37.6667C148.467 37.6667 148.333 37.6667 148.333 41.0001C148.333 44.3334 148.467 44.3334 159.667 44.3334C170.067 44.3334 171 44.6001 171 47.0001C171 49.4001 170.067 49.6667 159.667 49.6667H148.333V53.5334V57.2667L164.067 58.0667C172.6 58.4667 183 59.8001 187 60.8667C191 61.9334 194.467 62.7334 194.733 62.4667C195.267 61.9334 160.867 4.60006 158.333 1.9334C157 0.466729 155.533 1.9334 150.6 9.9334Z" fill="black"/>
<path d="M617.267 1.13331C615.933 2.46664 616.2 139.267 617.533 141.4C618.2 142.467 619.8 143 621.133 142.733C623.533 142.333 623.667 140.467 624.333 116.333C625 89.2666 625.8 85.8 632.2 78.4666C640.067 69.4 656.733 68.6 665.4 76.7333C672.333 83.2666 673 85.8 673.667 115L674.333 142.333H677.667H681L681.4 117.8C681.8 90.3333 680.6 83.4 673.8 74.2C664.2 60.7333 643.133 59.2666 630.2 71.2666L624.333 76.6L624.067 38.8666C623.667 1.93331 623.667 0.999976 621 0.599976C619.4 0.33331 617.8 0.599976 617.267 1.13331Z" fill="black"/>
<path d="M551.667 36.5999C551.267 37.5332 550.867 44.0666 550.733 50.9999L550.333 63.6666L541 64.3332C533.267 64.8666 531.667 65.3999 531.267 67.5332C530.467 71.1332 533.267 72.3332 542.6 72.3332H551L551.267 107.267C551.667 141.267 551.8 142.333 554.333 142.333C556.867 142.333 557 141.267 557.4 106.6L557.667 70.9999H567.667C575.4 70.9999 577.933 70.5999 578.467 68.9999C580.067 64.8666 576.467 62.9999 566.867 62.9999H557.8L557.4 49.3999C557 37.5332 556.733 35.6666 554.6 35.2666C553.4 34.9999 552.067 35.5332 551.667 36.5999Z" fill="black"/>
<path d="M449.4 63.5333C421 71.4 411.133 109.4 431.667 132.067C441.8 143.4 457.8 147.267 473 142.2C480.733 139.533 492.867 128.467 492.067 124.867C491.267 120.333 487 121.133 481.133 126.867C474.333 133.533 467.8 136.333 459 136.333C445.533 136.333 432.6 125.267 429.133 110.733L428.333 107L461.933 106.733L495.667 106.333L496.067 100.867C496.333 97.6667 495.267 92.3333 493.667 88.0667C486.733 69.4 467.133 58.4667 449.4 63.5333ZM470.733 73.5333C473.4 75 477.267 77.8 479.267 79.9333C482.867 83.6667 488.2 94.0667 488.333 97.2667C488.333 98.6 481.4 99 458.2 99H428.2L429.133 95.9333C432.333 85.1333 437.8 77.6667 445.533 73.6667C452.067 70.2 464.2 70.2 470.733 73.5333Z" fill="black"/>
<path d="M750.733 63.5334C728.067 69.8 715.933 95.4 724.467 118.6C728.2 128.333 737 137.8 745.933 141.667C761.4 148.333 785 141.4 791.667 128.333C795.533 120.6 789.667 119.4 782.867 126.467C770.467 139.533 751.667 139.667 739.533 126.733C735 121.933 731.933 116.467 730.467 110.733L729.667 107L763.267 106.733L797 106.333L797.4 100.867C797.933 93.6667 793.533 82.2 787.667 75.2667C778.867 65.1334 763.133 60.0667 750.733 63.5334ZM770.067 72.2C778.067 75.2667 786.467 85.6667 788.867 95.2667L789.667 99H759.8H729.8L731.667 92.7334C735.667 79.5334 746.467 71 759.267 71C763.4 71 768.333 71.5334 770.067 72.2Z" fill="black"/>
<path d="M936.067 63.5334C932.6 64.4667 928.733 66.0667 927.4 67.0001C920.733 72.0667 915.8 77.6667 912.6 83.6667C909.4 89.6667 909 91.8001 909 103.667C909 118.867 911.133 124.467 920.067 133.4C928.067 141.4 933.933 143.667 947 143.667C957.133 143.667 959.133 143.267 965.533 139.667C973.4 135.4 979.533 128.467 978.733 124.733C977.933 120.467 973.933 121.4 967.933 127.533C961.4 133.933 955.4 136.333 945.667 136.333C934.2 136.2 924.467 129.267 918.867 117C914.067 106.467 912.2 107.133 950.067 106.733L983.667 106.333L983.533 99.6667C983.267 90.2001 978.6 80.2001 971 73.1334C960.6 63.4001 948.333 60.0667 936.067 63.5334ZM960.733 74.8667C967.267 79.1334 975 90.4667 975 95.9334V99.0001H945.667C923.133 99.0001 916.333 98.6001 916.333 97.2667C916.333 93.9334 922.733 82.2001 926.467 78.8667C932.867 73.0001 937.8 71.1334 946.467 71.0001C953.133 71.0001 955.533 71.6667 960.733 74.8667Z" fill="black"/>
<path d="M1155.27 63.3999C1152.87 64.0666 1148.2 67.1333 1145 69.9333L1139 75.2666V70.7333C1139 64.9999 1136.87 62.5999 1133.4 64.4666C1131.13 65.6666 1131 68.1999 1131 102.333C1131 122.333 1131.4 139.667 1131.8 140.867C1132.73 143.4 1135.8 143.667 1137.27 141.267C1137.8 140.467 1138.6 128.2 1139 114.333C1139.67 90.4666 1139.8 88.5999 1143 82.9999C1150.47 69.6666 1168.2 65.5333 1179.13 74.5999C1187 81.2666 1187.67 83.7999 1188.33 113.667C1189 139 1189.13 141 1191.53 141.4C1192.87 141.667 1194.47 141.133 1195.13 140.067C1195.8 139.133 1196.33 129.267 1196.33 118.2C1196.33 90.1999 1199.93 79.3999 1211.67 72.7333C1222.6 66.4666 1235.8 70.7333 1241.67 82.3333C1244.87 88.5999 1245 90.1999 1245.4 115.267L1245.93 141.667H1249.27H1252.47L1252.07 112.6L1251.67 83.6666L1247.93 77.2666C1245.8 73.7999 1241.8 69.1333 1238.87 67.1333C1234.33 63.7999 1232.73 63.3999 1225.4 63.6666C1217.93 63.9333 1217.67 63.9333 1223 62.9999L1229 62.0666L1223.67 61.9333C1212.87 61.3999 1203.8 66.0666 1197.13 75.2666L1193.4 80.4666L1190.07 75.2666C1188.2 72.3333 1184.33 68.4666 1181.4 66.5999C1177.13 63.7999 1174.87 63.2666 1168.6 63.6666C1162.07 63.9333 1161.67 63.9333 1166.33 62.9999L1171.67 62.0666H1165.67C1162.33 61.9333 1157.67 62.5999 1155.27 63.3999Z" fill="black"/>
<path d="M139.267 64.3333C129.667 65.6666 116.467 69.2666 114.067 71.1333C113.267 71.9333 110.067 76.7333 106.867 82.0666C103.8 87.3999 100.333 93.1333 99.1333 94.9999C97.4 97.9333 97.8 97.7999 101.8 94.0666C112.067 84.5999 135.133 77.6666 157 77.6666C178.2 77.6666 202.2 84.5999 211.4 93.2666C213.4 95.2666 215 96.3333 215 95.7999C215 94.1999 201.667 72.5999 199.667 70.9999C193.533 65.9333 157 61.7999 139.267 64.3333Z" fill="black"/>
<path d="M839.933 65.1334C839.4 65.6668 839 83.0001 839 103.8C839 137.267 839.267 141.533 841.133 142.2C846.2 144.067 847 140.867 847 119.533C847 102.2 847.4 98.0668 849.8 91.8001C853 83.1334 860.733 75.8001 869 73.4001C875.533 71.5334 878.333 69.2668 877.267 66.4668C875.267 61.1334 857.267 67.0001 850.467 75.1334L847.133 79.0001L846.733 72.0668C846.333 66.0668 845.933 65.0001 843.667 64.6001C842.067 64.3334 840.467 64.6001 839.933 65.1334Z" fill="black"/>
<path d="M1025.27 65.2666C1024.73 65.6666 1024.33 77.2666 1024.33 91C1024.33 121.8 1025.67 127.533 1035 136.6C1047.13 148.333 1063.27 147.933 1075.53 135.4L1081.67 129.267V136.067C1081.67 142.6 1081.93 143 1085 143H1088.33V104.467C1088.33 70.4666 1088.07 65.8 1086.2 65.1333C1085 64.7333 1083.67 64.6 1083.13 65C1082.6 65.2666 1081.67 75.6666 1081.27 88.0666C1080.6 102.067 1079.53 113.267 1078.2 117.533C1075.4 127.133 1068.6 134.467 1060.87 136.067C1049.4 138.467 1040.47 134.333 1035.4 124.333C1032.47 118.867 1032.33 116.733 1032.33 93C1032.33 75 1031.8 67 1030.73 65.9333C1029 64.2 1026.6 63.8 1025.27 65.2666Z" fill="black"/>
<path d="M141 84.3333C123.133 87.1333 107.667 93.6667 102.867 100.467C99.8 104.733 99.5333 112.067 102.333 115.8C104.067 118.067 104.2 117.667 104.333 109.933V101.667H114.333H124.333V115.533C124.333 129 125 131 129.133 131C129.4 131 129.667 121.4 129.667 109.667V88.3333H138.467C145.667 88.3333 147.4 88.7333 147.8 90.6C148.333 92.6 150.067 93 159.133 93C168.333 93 169.667 92.7333 169.667 90.6C169.667 88.6 171 88.3333 179 88.3333H188.333V109.133C188.333 125.133 188.733 129.8 190.067 129.4C191.133 129 191.8 124.6 192.067 115.267L192.467 101.667H201.667H211V109.267C211 114.733 211.4 116.467 212.467 115.4C215 112.867 214.333 105 211.267 100.6C207.8 95.8 195.267 89.2667 183.8 86.3333C173.8 83.8 151.267 82.7333 141 84.3333Z" fill="black"/>
<path d="M135 144.333V193.667H138.333H141.667V144.333V95.0001H138.333H135V144.333Z" fill="black"/>
<path d="M175 144.333V193.667H179H183V144.333V95.0001H179H175V144.333Z" fill="black"/>
<path d="M151.267 99.7999C149 101.267 148.333 103.133 148.333 107.267C148.333 113.933 150.867 116.2 158.333 116.333C166.067 116.333 169.667 113.4 169.667 107C169.667 100.733 166.067 97.6666 159 97.6666C156.333 97.6666 152.867 98.5999 151.267 99.7999Z" fill="black"/>
<path d="M220.333 107.4C220.333 112.333 217.4 119.133 213.8 122.2C211.133 124.733 211 125.667 211 160.467V196.2L217.4 197C229.667 198.733 262.467 205.533 273.667 208.867C279.933 210.6 285.133 211.933 285.267 211.8C285.533 211.667 271.667 188.467 254.6 160.2C237.533 132.067 222.867 107.8 221.933 106.333C220.467 103.8 220.467 103.933 220.333 107.4Z" fill="black"/>
<path d="M61.4 157.133C44.2 185.667 30.2 209.133 30.3333 209.4C30.4666 209.533 36.8666 208.2 44.4666 206.333C59.6666 202.6 83 198.333 96.0666 196.867L104.333 195.933V161.267V126.467L100.2 122.2C97.6666 119.667 95.2666 115.267 94.3333 111.533L92.7333 105.4L61.4 157.133Z" fill="black"/>
<path d="M111 151V195H114.333H117.667V151V107H114.333H111V151Z" fill="black"/>
<path d="M197.667 151V195H201H204.333V151V107H201H197.667V151Z" fill="black"/>
<path d="M148.333 126.867V133.667H159H169.667V127C169.667 120.333 169.667 120.333 166.067 121.267C161.267 122.6 155.133 122.6 151.4 121.267C148.467 120.2 148.333 120.467 148.333 126.867Z" fill="black"/>
<path d="M124.333 164.467C124.333 192.733 124.467 193.667 127 193.667C129.533 193.667 129.667 192.733 129.667 165.133C129.667 137.8 129.533 136.6 127 135.933C124.333 135.267 124.333 135.933 124.333 164.467Z" fill="black"/>
<path d="M188.333 164.333C188.333 189.533 188.6 193.667 190.333 193.667C192.067 193.667 192.333 189.533 192.333 164.333C192.333 139.133 192.067 135 190.333 135C188.6 135 188.333 139.133 188.333 164.333Z" fill="black"/>
<path d="M148.333 166.733V193.8L158.733 193.4L169 193V166.333V139.667H158.733H148.333V166.733Z" fill="black"/>
<path d="M386.067 201.933C386.467 203.267 477.8 203.667 837 203.667C1196.2 203.667 1287.53 203.267 1288.07 201.933C1288.47 200.733 1197.67 200.333 837 200.333C476.333 200.333 385.533 200.733 386.067 201.933Z" fill="black"/>
<path d="M125 204.067C125.8 204.867 135.8 209.133 147.267 213.533C158.867 217.933 172.6 223.8 177.933 226.6C190.733 233.133 203.8 246.067 209.4 257.667C214.467 267.8 218.2 284.467 217 290.867L216.2 295.267L222.6 291.533C226.2 289.4 233.8 285 239.533 281.667L249.933 275.667L249.133 262.333C248.2 246.2 245.533 235.8 239.533 224.333C231.4 209.133 230.467 208.333 216.2 206.2C200.6 203.8 123 202.067 125 204.067Z" fill="black"/>
<path d="M101.133 205.533L94.4666 206.333L92.7333 214.333C90.4666 224.467 86.3333 231.267 77.4 240.067C69 248.2 62.3333 253 51 258.333L43 262.2L61.9333 273.4C90.3333 290.067 86.6 289 96.4666 283.267C108.867 276.067 122.067 262.467 126.867 252.2C131.4 242.6 133.933 229.533 132.733 222.2C132.067 217.933 131.133 217.133 124.6 214.2C120.467 212.333 115.133 209.4 112.867 207.667C110.467 205.8 108.333 204.467 108.067 204.6C107.8 204.6 104.733 205.133 101.133 205.533Z" fill="black"/>
<path d="M60.3333 212.333C50.4666 214.333 37.8 217.4 32.2 219C22.3333 221.933 22.0666 222.067 17.6666 229.533C15.2666 233.667 12.3333 238.333 11.4 239.8C9.66664 242.6 10.0666 243 21.1333 249.4C32.3333 255.933 32.7333 256.067 37.6666 254.333C50.0666 249.933 66.6 239.4 73.6666 231.533C78.3333 226.2 84.3333 214.467 84.3333 210.6C84.3333 207.533 82.0666 207.667 60.3333 212.333Z" fill="black"/>
<path d="M246.333 216.867C252.867 228.067 257.4 245 259.267 266.067L259.667 269.667L282.067 256.2C294.333 248.867 304.2 242.467 303.933 241.933C303.667 241.4 301.133 237.267 298.333 232.6L293.267 224.333L282.067 220.867C271.133 217.533 246.067 211 243.933 211C243.4 211 244.467 213.667 246.333 216.867Z" fill="black"/>
<path d="M142.333 224.2C143.933 229.4 140.333 245 134.867 256.067C128.867 268.467 116.333 282.067 104.467 289C100.733 291.133 97.6667 293.267 97.6667 293.667C97.6667 294.2 154.733 328.2 157.8 329.4C159.533 330.067 204.333 302.867 205.533 300.467C209.8 292.2 207.8 275.267 201.267 261.8C193.8 246.6 181.8 237 157.133 227C142.333 220.867 141.133 220.733 142.333 224.2Z" fill="black"/>
<path d="M3.53331 258.333C1.66665 261.667 0.19998 264.6 0.466646 264.867C0.733313 265.133 36.6 286.333 80.0667 312.2L159.133 359L238.333 311.933L317.533 265L314.067 259C312.2 255.667 310.467 252.867 310.333 252.6C310.2 252.467 276.6 271.8 235.667 295.667C194.867 319.667 160.6 339.533 159.667 339.933C158.6 340.2 124.2 320.733 83.1333 296.467C42.0666 272.2 8.19998 252.333 7.79998 252.333C7.39998 252.333 5.53331 255 3.53331 258.333Z" fill="black"/>
<path d="M599.4 263C588.467 265.533 577.933 275.4 575 285.8C573.133 292.333 573.4 303.133 575.667 309.533C578.467 317.667 583.4 323.4 591.267 327.8C597.4 331.133 599.667 331.533 609 331.533C616.2 331.533 621.8 330.6 626.333 328.867L633 326.2L633.4 309.267L633.8 292.333H622.333C611.133 292.333 611 292.333 611 295.667C611 298.867 611.4 299 619 299H627V310.333C627 324.2 626.2 325 609.533 325C599.267 325 597.533 324.6 592.467 321.267C580.067 313 576.467 292.467 585.267 279.8C593.133 268.467 610.467 264.733 622.333 271.667C627.8 274.867 628.067 274.867 630.2 272.467C632.333 270.067 632.2 269.8 628.067 267.267C619.667 262.2 609.267 260.6 599.4 263Z" fill="black"/>
<path d="M775.667 262.867C759.8 267 749.667 280.333 749.667 297C749.667 311 756.467 322.2 768.733 328.6C780.2 334.467 798.333 331.8 806.2 323.133C808.6 320.467 808.733 320.067 806.6 318.067C804.467 315.933 804.2 315.933 801.667 318.733C796.6 324.2 791.267 325.933 782.2 325.4C766.067 324.333 757 314.2 757 297C757 280.867 765.8 270.067 780.2 268.6C788.333 267.8 791.8 268.733 797.933 272.733C801.933 275.533 802.867 275.667 805 274.2C807 272.733 807.133 272.067 805.667 270.333C800.6 264.2 785 260.333 775.667 262.867Z" fill="black"/>
<path d="M902.067 263C891.133 265.533 880.6 275.4 877.667 285.8C875.8 292.333 876.067 303.133 878.333 309.533C881.133 317.667 886.067 323.4 893.933 327.8C900.067 331.133 902.333 331.533 911.667 331.533C918.867 331.533 924.467 330.6 929 328.867L935.667 326.2L936.067 309.267L936.467 292.333H925C913.8 292.333 913.667 292.333 913.667 295.667C913.667 298.867 914.067 299 921.667 299H929.667V310.333C929.667 324.2 928.867 325 912.2 325C901.933 325 900.2 324.6 895.133 321.267C882.733 313 879.133 292.467 887.933 279.8C895.8 268.467 913.133 264.733 925 271.667C930.467 274.867 930.733 274.867 932.867 272.467C935 270.067 934.867 269.8 930.733 267.267C922.333 262.2 911.933 260.6 902.067 263Z" fill="black"/>
<path d="M423 266.333C423 269.667 423.133 269.667 434.333 269.667H445.667V300.333V331H449H452.333V300.333V269.667H463.667C474.867 269.667 475 269.667 475 266.333V263H449H423V266.333Z" fill="black"/>
<path d="M504.333 297V331H525.667H547V327.667V324.333H529H511V311.667V299H527.667H544.333V295.667V292.333H527.667H511V281V269.8L528.733 269.4C545.8 269 546.333 268.867 546.733 265.933L547.133 263H525.8H504.333V297Z" fill="black"/>
<path d="M668.6 288.6C669 311.133 669.267 315 671.667 319.667C680.333 336.867 707.133 336.067 715.133 318.467C717.267 313.8 717.667 309.4 717.667 287.933V263H714.333H711V287C711 313.4 710.067 317.667 703.667 322.733C698.2 327.133 687.267 326.867 681.8 322.2C676.067 317.4 675 311.933 675 285.933V263H671.533H668.067L668.6 288.6Z" fill="black"/>
<path d="M837.667 297V331H841H844.333V297V263H841H837.667V297Z" fill="black"/>
<path d="M989.933 272.6C987.667 277.933 981 293.267 975.133 306.733L964.467 331.133L968.6 330.733C972.2 330.333 973 329.4 976.067 321.933L979.533 313.533L997.533 313.933L1015.53 314.333L1018.87 322.6C1021.8 330.2 1022.47 331 1025.93 331C1027.93 331 1029.67 330.867 1029.67 330.6C1029.67 330.333 1023.13 315.267 1015.13 297C1002.2 267.267 1000.33 263.667 997.4 263.267C994.467 262.867 993.667 263.933 989.933 272.6ZM1005.4 289.933L1012.07 307H997.533C989.533 307 983 306.6 983 306.067C983 303.667 997.133 271.267 997.8 272.067C998.2 272.6 1001.67 280.6 1005.4 289.933Z" fill="black"/>
<path d="M1056.33 297V331H1075.67H1095V327.667V324.333H1079H1063V293.667V263H1059.67H1056.33V297Z" fill="black"/>
<path d="M1121.67 297V331H1125H1128.33V315V299H1138.07C1145.53 299 1149.13 298.333 1153.67 295.933C1160.73 292.467 1163 288.6 1163 280.333C1163 267.933 1155 263.133 1134.73 263H1121.67V297ZM1150.87 271.667C1155 273.667 1156.33 276.067 1156.33 281C1156.33 289.267 1151.27 292.333 1137.67 292.333H1128.33V281V269.667H1137.67C1143.4 269.667 1148.6 270.467 1150.87 271.667Z" fill="black"/>
<path d="M1203.27 272.6C1201 277.933 1194.33 293.267 1188.47 306.733L1177.8 331.133L1181.93 330.733C1185.53 330.333 1186.33 329.4 1189.4 321.933L1192.87 313.533L1210.87 313.933L1228.87 314.333L1232.2 322.6C1235.13 330.2 1235.8 331 1239.27 331C1241.27 331 1243 330.867 1243 330.6C1243 330.333 1236.47 315.267 1228.47 297C1215.53 267.267 1213.67 263.667 1210.73 263.267C1207.8 262.867 1207 263.933 1203.27 272.6ZM1218.73 289.933L1225.4 307H1210.87C1202.87 307 1196.33 306.6 1196.33 306.067C1196.33 303.667 1210.47 271.267 1211.13 272.067C1211.53 272.6 1215 280.6 1218.73 289.933Z" fill="black"/>
</svg>
